<?xml version="1.0" encoding="UTF-8"?>
<svg width="1252pt" height="1248pt" viewBox="0 0 1252 1248" preserveAspectRatio="xMidYMid" xmlns="http://www.w3.org/2000/svg">
  <g transform="matrix(0.1,0,0,-0.1,0,1248)" fill="#000000" stroke="none">
    <path d="m 4971,11839 c -97,-34 -180,-119 -223,-228 -21,-53 -22,-74 -27,-426 l -6,-370 -1035,-5 c -1035,-5 -1035,-5 -1135,-32 -119,-33 -294,-117 -386,-187 -171,-130 -310,-324 -377,-526 -53,-158 -52,-139 -52,-1224 0,-619 -4,-1019 -10,-1035 -9,-25 -9,-25 -377,-28 -361,-3 -369,-3 -427,-27 -81,-32 -175,-126 -207,-207 -24,-59 -24,-59 -24,-1314 0,-1255 0,-1255 24,-1315 33,-82 124,-173 206,-206 59,-24 65,-24 431,-27 372,-3 372,-3 378,-25 3,-12 6,-477 6,-1034 0,-1106 -1,-1075 60,-1250 72,-207 227,-409 410,-533 92,-62 233,-127 345,-157 100,-28 100,-28 1135,-33 l 1035,-5 6,-370 c 5,-321 8,-377 23,-421 23,-66 78,-138 140,-185 97,-73 9,-69 1375,-69 1203,0 1228,0 1287,20 99,34 190,127 230,235 16,44 19,96 23,420 l 6,370 1035,5 c 1035,5 1035,5 1135,33 411,112 708,427 802,850 14,63 17,205 20,1092 2,561 3,1028 3,1037 0,16 28,18 373,20 367,3 373,3 432,27 82,33 173,124 206,206 24,60 24,60 24,1315 0,1255 0,1255 -24,1314 -33,81 -125,175 -206,207 -59,24 -66,24 -425,27 -226,2 -369,7 -375,13 -6,6 -12,381 -15,1067 -6,1057 -6,1057 -28,1135 -93,322 -296,567 -587,709 -55,26 -145,60 -200,75 -100,28 -100,28 -1135,33 l -1035,5 -6,370 c -5,318 -8,377 -24,421 -35,104 -137,205 -239,237 -48,16 -161,17 -1282,16 -1183,0 -1231,-1 -1283,-20 z m 2489,-257 c 69,-34 70,-45 68,-427 l -3,-340 H 6260 4995 v 352 c 0,341 1,352 21,380 11,15 36,33 55,40 26,9 322,12 1194,12 1085,1 1162,0 1195,-17 z m 2455,-1065 c 94,-27 234,-101 307,-161 156,-129 257,-305 294,-511 21,-119 21,-7097 0,-7225 -17,-105 -37,-163 -87,-260 -103,-199 -297,-355 -519,-417 -62,-17 -221,-18 -3650,-18 -3585,0 -3585,0 -3664,23 -260,75 -474,280 -561,537 -47,140 -45,-18 -45,3745 0,3764 -2,3606 45,3745 95,281 331,492 615,550 54,11 696,13 3635,12 3372,-2 3573,-3 3630,-20 z M 1720,7491 c 14,-26 14,-2479 0,-2515 -10,-26 -10,-26 -347,-26 -320,0 -340,1 -371,20 -18,11 -37,32 -42,46 -6,16 -10,466 -10,1215 0,1043 2,1194 15,1219 30,58 38,59 407,60 323,0 338,-1 348,-19 z m 9790,4 c 64,-33 60,43 60,-1265 0,-1308 4,-1232 -60,-1265 -24,-13 -84,-15 -365,-15 -335,0 -335,0 -345,26 -14,36 -14,2489 0,2515 10,18 25,19 346,19 280,0 340,-2 364,-15 z M 7528,1305 c 2,-382 1,-393 -68,-427 -33,-17 -111,-18 -1200,-18 -1089,0 -1167,1 -1200,18 -68,33 -70,46 -70,423 0,185 3,339 7,342 3,4 574,6 1267,5 l 1261,-3 z" />
    <path d="m 3723,10190 c -55,-33 -65,-59 -73,-188 -33,-503 -355,-923 -828,-1082 -102,-34 -249,-60 -342,-60 -75,0 -120,-22 -145,-69 -13,-27 -15,-296 -15,-2563 0,-2495 0,-2533 20,-2565 27,-45 68,-63 143,-63 153,0 366,-56 516,-136 384,-204 619,-567 651,-1002 9,-135 19,-159 73,-192 31,-20 72,-20 2537,-20 2465,0 2506,0 2537,20 54,33 64,57 73,192 36,503 357,920 828,1078 99,33 249,60 335,60 74,0 121,20 147,62 20,33 20,43 20,2566 0,2267 -2,2536 -15,2563 -25,47 -70,69 -145,69 -145,0 -353,51 -492,121 -395,197 -648,577 -677,1016 -9,134 -19,160 -74,193 -31,20 -72,20 -2537,20 -2465,0 -2506,0 -2537,-20 z m 4881,-272 c 2,-13 11,-66 21,-118 52,-298 208,-587 431,-800 211,-202 443,-321 734,-379 135,-28 135,-28 135,-2391 0,-2364 0,-2364 -115,-2386 -244,-46 -429,-127 -625,-275 -289,-217 -499,-558 -560,-909 -10,-52 -19,-105 -21,-117 -4,-23 -4,-23 -2343,-23 -2124,0 -2339,1 -2345,16 -3,9 -6,28 -6,42 0,104 -97,399 -176,536 -224,387 -568,637 -1004,726 -135,27 -135,27 -135,2391 0,2364 0,2364 99,2381 300,53 556,182 775,392 225,217 382,515 431,816 6,41 14,85 16,98 4,22 4,22 2344,22 2340,0 2340,0 2344,-22 z" />
    <path d="m 5935,8845 c -472,-62 -915,-249 -1295,-549 -111,-87 -364,-347 -448,-458 -495,-661 -660,-1480 -458,-2272 115,-445 335,-836 660,-1174 428,-443 967,-709 1586,-782 124,-15 458,-12 590,4 474,59 907,239 1289,534 111,85 368,342 453,453 632,816 735,1917 268,2835 -121,237 -263,434 -454,632 -421,435 -944,698 -1549,777 -137,18 -501,18 -642,0 z m 491,-255 c 693,-55 1302,-395 1720,-960 160,-216 312,-537 378,-798 58,-227 70,-328 70,-597 1,-197 -3,-273 -17,-360 -85,-506 -300,-938 -647,-1299 -285,-295 -638,-508 -1030,-621 -655,-188 -1351,-81 -1918,295 -481,320 -835,810 -981,1362 -62,230 -75,338 -75,613 -1,278 9,366 69,601 99,388 303,754 583,1046 400,417 930,671 1497,717 147,12 208,12 351,1 z" />
    <path d="m 6561,8032 c -25,-26 -125,-141 -221,-256 -270,-323 -435,-519 -664,-791 -571,-678 -561,-667 -574,-692 -7,-12 -12,-41 -12,-65 0,-34 6,-50 29,-76 17,-18 42,-37 56,-42 16,-6 193,-10 451,-10 424,0 424,0 424,-24 0,-14 -31,-139 -69,-278 -38,-139 -92,-341 -121,-448 -29,-107 -90,-334 -136,-505 -46,-170 -84,-323 -84,-340 0,-67 63,-125 137,-125 71,0 43,-33 603,720 188,254 520,699 800,1075 123,165 230,313 238,328 9,19 13,45 9,75 -4,37 -12,53 -41,79 -36,33 -36,33 -430,33 -303,0 -396,3 -404,13 -10,13 -11,10 93,507 166,794 160,756 129,809 -24,40 -64,61 -120,61 -44,0 -51,-4 -93,-48 z" />
    <path d="m 2679,10156 c -341,-99 -452,-535 -200,-787 174,-174 457,-177 637,-7 98,92 145,199 146,333 2,206 -110,373 -302,450 -59,23 -217,30 -281,11 z" />
    <path d="m 204,-272 c 91,-46 131,-142 102,-241 -29,-97 -131,-158 -225,-134 -155,41 -202,231 -83,343 15,15 39,31 53,37 39,15 118,13 153,-5 z" />
    <path d="m 9578,10151 c -82,-26 -135,-61 -199,-127 -113,-120 -155,-281 -114,-439 55,-210 232,-347 450,-347 196,0 363,115 436,300 33,82 33,252 0,332 -43,104 -131,204 -220,250 -103,52 -247,65 -353,31 z" />
    <path d="m 220,-270 c 77,-40 116,-107 110,-190 -10,-133 -146,-224 -259,-174 -46,21 -104,78 -120,120 -24,63 1,164 52,209 63,56 149,70 217,35 z" />
    <path d="m 2726,3219 c -130,-19 -271,-120 -330,-237 -114,-225 -42,-500 163,-623 80,-48 116,-59 212,-66 140,-10 255,33 355,132 70,70 108,141 130,244 41,199 -66,415 -251,509 -79,39 -184,55 -279,41 z" />
    <path d="m 127,-270 c 97,-27 162,-140 137,-237 -37,-146 -208,-203 -313,-104 -113,106 -76,290 68,340 40,14 62,14 108,1 z" />
    <path d="m 9563,3199 c -37,-11 -88,-39 -125,-67 -231,-175 -252,-511 -44,-710 68,-66 113,-92 201,-117 77,-23 207,-16 287,14 162,62 280,219 294,394 19,222 -113,425 -314,487 -85,27 -214,26 -299,-1 z" />
    <path d="m 234,-264 c 69,-35 106,-89 111,-164 16,-222 -287,-294 -373,-89 -43,103 13,225 121,263 56,20 84,18 141,-10 z" />
  </g>
</svg>
